<?xml version="1.0" encoding="utf-8"?>
<!-- Generator: Adobe Illustrator 26.3.1, SVG Export Plug-In . SVG Version: 6.00 Build 0)  -->
<svg version="1.1" id="Livello_1" xmlns="http://www.w3.org/2000/svg" xmlns:xlink="http://www.w3.org/1999/xlink" x="0px" y="0px"
	 viewBox="0 0 1080 283.1" style="enable-background:new 0 0 1080 283.1;" xml:space="preserve">
<style type="text/css">
	.st0{fill:none;}
</style>
<g>
	<g>
		<g>
			<path d="M242.7,29h45.6v29.2h1.1c3-6.8,7-12.6,12-17.5c5-4.9,10.7-8.6,17.4-11.3c6.6-2.6,13.9-3.9,21.8-3.9
				c14.2,0,26.4,3.5,36.6,10.4c10.2,6.9,18.1,16.9,23.6,29.9c5.5,13,8.3,28.6,8.3,46.7v0.2c0,18.1-2.7,33.7-8.2,46.7
				c-5.5,13-13.3,23-23.4,30c-10.1,7-22.2,10.5-36.3,10.5c-7.9,0-15.3-1.3-22-3.9c-6.8-2.6-12.7-6.3-17.7-11
				c-5-4.7-9.1-10.4-12.2-17.1h-0.9v83.3h-45.6V29z M345.3,156.2c5.5-4,9.8-9.7,12.7-17.1s4.5-16.1,4.5-26.3v-0.2
				c0-10.2-1.5-19-4.5-26.3c-3-7.3-7.3-13-12.8-17c-5.5-4-12-5.9-19.5-5.9c-7.4,0-13.9,2-19.5,6c-5.6,4-10,9.7-13.1,17.1
				c-3.1,7.4-4.7,16.2-4.7,26.3v0.2c0,10,1.6,18.7,4.8,26.1c3.2,7.4,7.6,13.1,13.1,17.1c5.6,4,12.1,6,19.5,6
				C333.2,162.2,339.7,160.2,345.3,156.2z"/>
			<path d="M464.8,189.5c-12.3-7-21.8-17.1-28.4-30.1c-6.7-13-10-28.4-10-46.3V113c0-17.8,3.3-33.3,10-46.3
				c6.7-13.1,16-23.2,28.1-30.3c12-7.1,26.2-10.7,42.6-10.7c16.4,0,30.5,3.5,42.4,10.4c11.9,6.9,21.2,16.7,27.7,29.3
				c6.5,12.6,9.8,27.4,9.8,44.2v14.2h-138V94.8h116.4l-21.7,27v-17.7c0-9.8-1.5-18-4.5-24.6c-3-6.6-7.2-11.6-12.6-14.9
				c-5.4-3.3-11.6-5-18.7-5s-13.4,1.7-18.8,5.2c-5.5,3.4-9.7,8.5-12.8,15.1c-3.1,6.6-4.6,14.7-4.6,24.3V122c0,9.2,1.5,17,4.6,23.6
				s7.5,11.6,13.2,15.1s12.6,5.2,20.5,5.2c6.3,0,11.7-1,16.3-3c4.6-2,8.3-4.5,11.3-7.5c2.9-3,4.9-6.1,5.9-9.2l0.3-0.9h41.9L585,147
				c-1.2,6.1-3.7,12.3-7.3,18.6c-3.6,6.3-8.6,12-14.8,17.2c-6.2,5.2-13.8,9.4-22.7,12.5c-8.9,3.1-19.4,4.7-31.3,4.7
				C491.8,200,477.1,196.5,464.8,189.5z"/>
			<path d="M610.3,29H656v29.2h0.9c2.5-10.3,7-18.3,13.6-24.1s14.7-8.6,24.5-8.6c2.5,0,4.9,0.2,7.2,0.5c2.3,0.3,4.3,0.7,5.9,1.2
				v40.3c-1.9-0.8-4.3-1.5-7.2-2c-2.9-0.5-6-0.7-9.4-0.7c-7.5,0-13.9,1.5-19.2,4.4c-5.3,2.9-9.4,7.2-12.2,12.8
				c-2.8,5.6-4.2,12.5-4.2,20.6v93.8h-45.6V29z"/>
			<path d="M743.3,192.8c-8.5-4.3-15.1-10.3-19.8-18s-7.1-16.4-7.1-26.2v-0.3c0-15.2,5.7-27.2,17.1-35.9
				c11.4-8.7,27.5-13.7,48.2-15.1l65.3-4.1v28.4l-58.5,3.9c-8.8,0.5-15.4,2.6-20,6.1c-4.6,3.5-6.9,8.3-6.9,14.2v0.3
				c0,6.1,2.3,11,7,14.5c4.7,3.5,11,5.2,18.9,5.2c6.8,0,12.8-1.3,18.2-4c5.4-2.7,9.6-6.3,12.7-10.9c3.1-4.6,4.6-9.8,4.6-15.6v-51
				c0-7.4-2.3-13.2-7-17.5c-4.7-4.3-11.5-6.4-20.5-6.4c-8.5,0-15.3,1.7-20.3,5.2c-5,3.5-8.1,7.9-9.2,13.4l-0.3,1.4h-41.9l0.2-1.9
				c0.9-10.3,4.4-19.5,10.4-27.5c6-8,14.3-14.3,25-18.8c10.7-4.5,23.4-6.8,38.1-6.8c14.5,0,27,2.3,37.7,7
				c10.6,4.6,18.9,11.2,24.8,19.6c5.9,8.4,8.8,18.3,8.8,29.5v114.9H823v-24.9h-0.9c-3.2,5.6-7.3,10.5-12.2,14.7
				c-4.9,4.2-10.5,7.3-16.8,9.5c-6.3,2.2-13.1,3.3-20.4,3.3C761.6,199.2,751.8,197.1,743.3,192.8z"/>
			<path d="M927.5,193.3c-10.9-4.5-19.4-10.7-25.4-18.7c-6-8-9.7-17.2-10.9-27.7l-0.2-1.4h44.5l0.3,1.4c1.5,6.6,4.7,11.7,9.8,15.3
				c5.1,3.6,12.2,5.5,21.3,5.5c5.8,0,10.8-0.7,14.8-2.1c4.1-1.4,7.2-3.4,9.5-6c2.2-2.6,3.4-5.7,3.4-9.4V150c0-4.5-1.6-8.1-4.8-10.8
				c-3.2-2.7-9-5-17.2-6.7l-28.4-6.1c-16.3-3.3-28.5-9.1-36.7-17.2c-8.2-8.1-12.3-18.4-12.3-30.9v-0.2c0-10.7,2.9-20,8.7-27.8
				c5.8-7.8,14-13.9,24.5-18.2c10.6-4.3,22.9-6.5,37.1-6.5c14.8,0,27.4,2.4,37.7,7.1s18.3,11.1,23.9,19.1c5.6,8,8.5,16.9,8.8,26.7
				v1.6h-42l-0.2-1.2C993,73,990.2,68,985.4,64c-4.8-4-11.5-6-19.9-6c-5.2,0-9.7,0.7-13.6,2.2s-6.8,3.5-8.9,6.1
				c-2.1,2.6-3.1,5.7-3.1,9.4v0.2c0,4.3,1.7,7.9,5,10.8c3.3,2.9,9.2,5.3,17.7,7l28.4,6.1c17.6,3.6,30.2,9.1,37.9,16.4
				c7.7,7.3,11.5,17.1,11.5,29.4v0.2c0,10.9-3.1,20.5-9.4,28.6c-6.3,8.1-14.9,14.5-25.9,19c-11,4.5-23.7,6.8-38.1,6.8
				C951.6,200,938.4,197.8,927.5,193.3z"/>
		</g>
	</g>
	<line class="st0" x1="47.3" y1="25.7" x2="4.3" y2="25.7"/>
	<path d="M187,73.6L187,73.6c0,12.9-1.8,24.1-5.4,33.6c-3.6,9.5-8.8,16.9-15.4,22.1c-6.7,5.2-14.6,7.9-23.9,7.9
		c-9.2,0-17.1-2.6-23.8-7.8c-6.7-5.2-11.9-12.5-15.5-22c-3.7-9.5-5.5-20.7-5.5-33.7v0H61.8v0c0,19.9,3.3,37,9.8,51.5
		c6.6,14.5,15.8,25.6,27.9,33.4s26.3,11.7,42.8,11.7c16.6,0,30.8-3.9,42.8-11.8c12-7.9,21.2-19,27.8-33.4
		c6.6-14.4,9.8-31.6,9.8-51.4v0H187z"/>
	<rect x="61.8" y="29.1" width="160.9" height="32"/>
	<g>
		<path d="M611,257.9v-30.5h11.2c2,0,3.6,0.2,4.9,0.7c1.3,0.5,2.3,1.1,3.1,1.9c0.7,0.8,1.3,1.7,1.6,2.7c0.3,1,0.4,2.1,0.4,3.2
			c0,1.7-0.3,3.1-1,4.2c-0.7,1.1-1.6,2-2.7,2.6c-1.1,0.6-2.4,1.1-3.8,1.3c-1.4,0.3-2.8,0.4-4.2,0.4h-6.5v13.5H611z M620.5,241.9
			c1.4,0,2.6-0.1,3.6-0.3c1.1-0.2,2-0.5,2.7-1c0.7-0.5,1.3-1.1,1.7-1.9c0.4-0.8,0.6-1.9,0.6-3.2c0-1.9-0.6-3.4-1.9-4.4
			c-1.3-1-3.3-1.5-6-1.5h-7.5v12.1H620.5z"/>
		<path d="M645.4,258.5c-1.4,0-2.7-0.3-4-0.8c-1.2-0.5-2.3-1.2-3.2-2.2c-0.9-1-1.6-2.2-2.2-3.6c-0.5-1.4-0.8-3.1-0.8-5
			c0-1.6,0.2-3.1,0.6-4.5c0.4-1.4,1.1-2.6,1.9-3.7c0.8-1,1.9-1.9,3.2-2.5c1.3-0.6,2.8-0.9,4.5-0.9c1.7,0,3.2,0.3,4.5,0.9
			c1.3,0.6,2.3,1.4,3.2,2.5c0.8,1,1.5,2.3,1.9,3.7c0.4,1.4,0.6,2.9,0.6,4.5c0,1.8-0.2,3.3-0.7,4.8s-1.2,2.6-2.1,3.6
			c-0.9,1-2,1.8-3.2,2.4C648.4,258.2,647,258.5,645.4,258.5z M652.9,246.9c0-1.3-0.1-2.5-0.4-3.6c-0.3-1.1-0.7-2.1-1.3-2.9
			c-0.6-0.8-1.4-1.5-2.3-2c-0.9-0.5-2.1-0.7-3.4-0.7c-1.3,0-2.5,0.3-3.4,0.8c-0.9,0.5-1.7,1.2-2.3,2.1c-0.6,0.9-1,1.9-1.3,3
			c-0.3,1.1-0.4,2.3-0.4,3.5c0,1.4,0.2,2.6,0.5,3.8s0.8,2.1,1.4,2.9c0.6,0.8,1.4,1.5,2.3,1.9c0.9,0.5,2,0.7,3.2,0.7
			c1.3,0,2.5-0.3,3.4-0.8c0.9-0.5,1.7-1.2,2.3-2.1c0.6-0.9,1-1.9,1.3-3C652.8,249.2,652.9,248.1,652.9,246.9z"/>
		<path d="M678.9,254.5l5.8-18.6h2.6l-7.1,22h-2.7l-4.8-18.5h-0.1l-4.9,18.5h-3.1l-6.7-22h2.5l5.7,18.8l5.1-18.8h2.8L678.9,254.5z"
			/>
		<path d="M692.5,247.5c0,1.2,0.2,2.3,0.5,3.4c0.3,1.1,0.8,2,1.4,2.8c0.6,0.8,1.4,1.4,2.3,1.9s2,0.7,3.2,0.7c1.7,0,3.1-0.4,4.3-1.3
			c1.2-0.9,2-2.1,2.4-3.7h2.8c-0.3,1-0.7,2-1.2,2.9c-0.5,0.9-1.1,1.7-1.9,2.3c-0.8,0.7-1.7,1.2-2.7,1.5c-1,0.4-2.3,0.5-3.6,0.5
			c-1.8,0-3.3-0.3-4.5-0.9c-1.3-0.6-2.3-1.4-3.1-2.4c-0.8-1-1.4-2.2-1.8-3.6c-0.4-1.4-0.6-2.9-0.6-4.5c0-1.6,0.2-3.1,0.7-4.5
			c0.5-1.4,1.1-2.7,2-3.7c0.9-1.1,1.9-1.9,3.2-2.5c1.2-0.6,2.7-0.9,4.2-0.9c3,0,5.4,1,7.1,3.1c1.7,2.1,2.6,5.1,2.5,9.1H692.5z
			 M706.8,245.3c0-1.1-0.1-2.1-0.4-3c-0.3-0.9-0.7-1.8-1.3-2.5c-0.6-0.7-1.3-1.2-2.2-1.7c-0.9-0.4-1.9-0.6-3-0.6
			c-1.1,0-2.1,0.2-3,0.6c-0.9,0.4-1.6,1-2.2,1.7c-0.6,0.7-1.1,1.5-1.5,2.5c-0.4,0.9-0.6,1.9-0.7,3H706.8z"/>
		<path d="M717.2,257.9h-2.5v-22h2.5v4.1h0.1c0.7-1.8,1.6-3,2.7-3.7c1.1-0.7,2.6-1,4.4-1v2.8c-1.4,0-2.6,0.2-3.6,0.7
			c-0.9,0.5-1.7,1.1-2.2,2c-0.6,0.8-0.9,1.8-1.1,2.9c-0.2,1.1-0.3,2.3-0.3,3.5V257.9z"/>
		<path d="M730.2,247.5c0,1.2,0.2,2.3,0.5,3.4c0.3,1.1,0.8,2,1.4,2.8c0.6,0.8,1.4,1.4,2.3,1.9c0.9,0.5,2,0.7,3.2,0.7
			c1.7,0,3.1-0.4,4.3-1.3c1.2-0.9,2-2.1,2.4-3.7h2.8c-0.3,1-0.7,2-1.2,2.9c-0.5,0.9-1.1,1.7-1.9,2.3c-0.8,0.7-1.7,1.2-2.7,1.5
			c-1,0.4-2.3,0.5-3.6,0.5c-1.8,0-3.3-0.3-4.5-0.9c-1.3-0.6-2.3-1.4-3.1-2.4c-0.8-1-1.4-2.2-1.8-3.6c-0.4-1.4-0.6-2.9-0.6-4.5
			c0-1.6,0.2-3.1,0.7-4.5c0.5-1.4,1.1-2.7,2-3.7c0.9-1.1,1.9-1.9,3.2-2.5c1.2-0.6,2.7-0.9,4.2-0.9c3,0,5.4,1,7.1,3.1
			c1.7,2.1,2.6,5.1,2.5,9.1H730.2z M744.5,245.3c0-1.1-0.1-2.1-0.4-3c-0.3-0.9-0.7-1.8-1.3-2.5c-0.6-0.7-1.3-1.2-2.2-1.7
			c-0.9-0.4-1.9-0.6-3-0.6c-1.1,0-2.1,0.2-3,0.6c-0.9,0.4-1.6,1-2.2,1.7c-0.6,0.7-1.1,1.5-1.5,2.5c-0.4,0.9-0.6,1.9-0.7,3H744.5z"/>
		<path d="M769.2,227.3h2.5v30.5h-2.5V254h-0.1c-0.4,0.7-0.8,1.4-1.4,1.9c-0.6,0.6-1.2,1-1.9,1.4c-0.7,0.4-1.4,0.6-2.1,0.8
			c-0.7,0.2-1.5,0.3-2.2,0.3c-1.8,0-3.3-0.3-4.5-0.9c-1.2-0.6-2.3-1.4-3.1-2.4s-1.4-2.3-1.8-3.7c-0.4-1.4-0.6-2.9-0.6-4.5
			c0-1.5,0.2-3,0.6-4.4c0.4-1.4,1-2.6,1.8-3.7c0.8-1.1,1.8-1.9,3.1-2.5c1.2-0.6,2.7-1,4.3-1c1.6,0,3,0.3,4.5,1s2.6,1.7,3.4,3.1
			V227.3z M769.2,246.8c0-1.2-0.2-2.4-0.5-3.5c-0.3-1.1-0.8-2.1-1.5-2.9c-0.6-0.8-1.4-1.5-2.3-2c-0.9-0.5-2-0.7-3.1-0.7
			c-1.3,0-2.5,0.3-3.4,0.8c-1,0.5-1.8,1.2-2.4,2.1c-0.6,0.9-1.1,2-1.4,3.2c-0.3,1.2-0.4,2.5-0.3,3.9c0,1.4,0.2,2.6,0.6,3.7
			c0.4,1.1,0.9,2,1.6,2.7c0.7,0.7,1.5,1.3,2.4,1.7c0.9,0.4,1.9,0.6,3,0.6c1.2,0,2.2-0.2,3.2-0.7c0.9-0.5,1.7-1.1,2.3-2
			c0.6-0.8,1.1-1.8,1.4-3C769,249.4,769.2,248.1,769.2,246.8z"/>
		<path d="M792.8,257.9h-2.5v-30.5h2.5v12.1c0.8-1.4,1.9-2.4,3.4-3.1c1.4-0.7,2.9-1,4.5-1c1.7,0,3.1,0.3,4.3,1
			c1.2,0.6,2.2,1.5,3.1,2.5c0.8,1.1,1.4,2.3,1.8,3.7c0.4,1.4,0.6,2.9,0.6,4.4c0,1.6-0.2,3.1-0.6,4.5c-0.4,1.4-1,2.6-1.8,3.7
			s-1.8,1.8-3.1,2.4c-1.2,0.6-2.8,0.9-4.5,0.9c-0.7,0-1.4-0.1-2.2-0.3c-0.7-0.2-1.4-0.5-2.1-0.8c-0.7-0.4-1.3-0.8-1.9-1.4
			c-0.6-0.6-1.1-1.2-1.4-1.9h-0.1V257.9z M792.8,246.8c0,1.3,0.2,2.6,0.5,3.7c0.3,1.1,0.8,2.1,1.4,3c0.6,0.8,1.4,1.5,2.3,2
			c0.9,0.5,2,0.7,3.2,0.7c1.1,0,2.1-0.2,3-0.6s1.7-0.9,2.4-1.7c0.7-0.7,1.2-1.6,1.6-2.7c0.4-1.1,0.6-2.3,0.6-3.7
			c0.1-1.4-0.1-2.7-0.3-3.9c-0.3-1.2-0.7-2.3-1.4-3.2c-0.6-0.9-1.4-1.6-2.4-2.1c-1-0.5-2.1-0.8-3.4-0.8c-1.2,0-2.2,0.2-3.1,0.7
			c-0.9,0.5-1.7,1.2-2.3,2c-0.6,0.8-1.1,1.8-1.5,2.9C792.9,244.4,792.8,245.5,792.8,246.8z"/>
		<path d="M815.7,263.8c0.3,0.1,0.7,0.1,1,0.2c0.4,0.1,0.7,0.1,1.1,0.1c0.7,0,1.3-0.2,1.7-0.7c0.5-0.5,0.8-1,1.1-1.6
			c0.3-0.6,0.5-1.3,0.7-2c0.2-0.7,0.4-1.3,0.7-1.8l-8.5-22.1h2.8l7,18.9l7-18.9h2.8l-8.2,21.7c-0.5,1.4-1,2.6-1.5,3.7
			c-0.5,1.1-1,2-1.5,2.8c-0.5,0.8-1.1,1.4-1.7,1.8c-0.6,0.4-1.4,0.6-2.3,0.6c-0.5,0-0.9,0-1.3-0.1c-0.4-0.1-0.8-0.1-1.1-0.2V263.8z"
			/>
		<path d="M870.9,236.2c-0.6-2.6-1.7-4.5-3.3-5.6c-1.6-1.1-3.7-1.7-6.3-1.7c-1.8,0-3.4,0.4-4.8,1.1c-1.3,0.7-2.4,1.7-3.3,3
			c-0.9,1.2-1.5,2.7-1.9,4.3c-0.4,1.6-0.6,3.3-0.6,5.2c0,1.7,0.2,3.4,0.5,5c0.4,1.6,0.9,3.1,1.8,4.4c0.8,1.3,1.9,2.3,3.3,3.1
			c1.4,0.8,3.1,1.2,5.2,1.2c1.3,0,2.5-0.2,3.6-0.6c1.1-0.4,2-1,2.8-1.8c0.8-0.7,1.5-1.6,2-2.7c0.6-1,1-2.1,1.3-3.4h3
			c-0.3,1.5-0.8,2.9-1.5,4.2c-0.7,1.3-1.5,2.5-2.6,3.5c-1.1,1-2.3,1.8-3.9,2.4c-1.5,0.6-3.3,0.9-5.3,0.9c-2.3,0-4.4-0.4-6-1.3
			c-1.7-0.9-3-2-4.1-3.5c-1.1-1.5-1.8-3.2-2.3-5.1c-0.5-1.9-0.7-4-0.7-6.2c0-2.9,0.4-5.4,1.1-7.4c0.7-2,1.7-3.7,3-5
			c1.3-1.3,2.8-2.2,4.5-2.8c1.7-0.6,3.6-0.9,5.6-0.9c1.6,0,3,0.2,4.3,0.6c1.3,0.4,2.5,1,3.6,1.8c1,0.8,1.9,1.8,2.5,3
			c0.7,1.2,1.1,2.6,1.4,4.2H870.9z"/>
		<path d="M888.2,258.5c-1.4,0-2.7-0.3-4-0.8c-1.2-0.5-2.3-1.2-3.2-2.2c-0.9-1-1.6-2.2-2.2-3.6c-0.5-1.4-0.8-3.1-0.8-5
			c0-1.6,0.2-3.1,0.6-4.5c0.4-1.4,1.1-2.6,1.9-3.7c0.8-1,1.9-1.9,3.2-2.5c1.3-0.6,2.8-0.9,4.5-0.9c1.7,0,3.2,0.3,4.5,0.9
			c1.3,0.6,2.3,1.4,3.2,2.5c0.8,1,1.5,2.3,1.9,3.7c0.4,1.4,0.6,2.9,0.6,4.5c0,1.8-0.2,3.3-0.7,4.8s-1.2,2.6-2.1,3.6
			c-0.9,1-2,1.8-3.2,2.4C891.1,258.2,889.7,258.5,888.2,258.5z M895.7,246.9c0-1.3-0.1-2.5-0.4-3.6c-0.3-1.1-0.7-2.1-1.3-2.9
			c-0.6-0.8-1.4-1.5-2.3-2c-0.9-0.5-2.1-0.7-3.4-0.7c-1.3,0-2.5,0.3-3.4,0.8c-0.9,0.5-1.7,1.2-2.3,2.1c-0.6,0.9-1,1.9-1.3,3
			c-0.3,1.1-0.4,2.3-0.4,3.5c0,1.4,0.2,2.6,0.5,3.8s0.8,2.1,1.4,2.9c0.6,0.8,1.4,1.5,2.3,1.9c0.9,0.5,2,0.7,3.2,0.7
			c1.3,0,2.5-0.3,3.4-0.8c0.9-0.5,1.7-1.2,2.3-2.1c0.6-0.9,1-1.9,1.3-3C895.5,249.2,895.7,248.1,895.7,246.9z"/>
		<path d="M905.6,257.9H903v-22h2.5v3.1c1-1.1,2.1-2,3.2-2.6c1.1-0.7,2.4-1,3.9-1c1.4,0,2.6,0.2,3.8,0.7c1.2,0.5,2.1,1.3,2.9,2.4
			c0.5,0.8,0.9,1.6,1,2.4c0.1,0.8,0.1,1.7,0.1,2.6v14.4h-2.5v-14.3c0-2-0.4-3.5-1.3-4.5c-0.9-1-2.3-1.5-4.4-1.5
			c-0.8,0-1.5,0.1-2.2,0.4c-0.7,0.2-1.2,0.6-1.8,1c-0.5,0.4-1,0.8-1.3,1.4c-0.4,0.5-0.7,1-0.8,1.6c-0.3,0.7-0.4,1.4-0.5,2
			c-0.1,0.6-0.1,1.4-0.1,2.1V257.9z"/>
		<path d="M934.4,257.9c-0.3,0.1-0.7,0.2-1.2,0.3c-0.5,0.1-1.1,0.2-1.7,0.2c-1.3,0-2.2-0.3-2.9-1c-0.7-0.6-1-1.8-1-3.4V238h-3.1
			v-2.1h3.1v-6.1h2.5v6.1h4.1v2.1h-4.1v15.1c0,0.5,0,1,0,1.4c0,0.4,0.1,0.7,0.3,1c0.1,0.3,0.4,0.4,0.7,0.6c0.3,0.1,0.7,0.2,1.3,0.2
			c0.3,0,0.7,0,1-0.1c0.4-0.1,0.7-0.1,1-0.2V257.9z"/>
		<path d="M941.1,257.9h-2.5v-22h2.5v4.1h0.1c0.7-1.8,1.6-3,2.7-3.7c1.1-0.7,2.6-1,4.4-1v2.8c-1.4,0-2.6,0.2-3.6,0.7
			c-0.9,0.5-1.7,1.1-2.2,2c-0.6,0.8-0.9,1.8-1.1,2.9c-0.2,1.1-0.3,2.3-0.3,3.5V257.9z"/>
		<path d="M962.6,245.1c0.5-0.1,1.1-0.1,1.7-0.3c0.7-0.1,1.2-0.3,1.6-0.5c0.4-0.2,0.7-0.5,0.8-1c0.1-0.5,0.1-0.9,0.1-1.3
			c0-1.3-0.4-2.4-1.3-3.2c-0.8-0.8-2.2-1.3-4.2-1.3c-0.9,0-1.7,0.1-2.4,0.2c-0.7,0.2-1.4,0.4-1.9,0.8c-0.6,0.4-1,0.9-1.4,1.5
			c-0.4,0.6-0.6,1.4-0.7,2.4h-2.6c0.1-1.3,0.4-2.4,0.9-3.3c0.5-0.9,1.2-1.7,2-2.2c0.8-0.6,1.7-1,2.8-1.3c1.1-0.3,2.2-0.4,3.4-0.4
			c1.1,0,2.1,0.1,3.1,0.4c1,0.2,1.8,0.6,2.5,1.1c0.7,0.5,1.3,1.2,1.7,2.1c0.4,0.9,0.6,2,0.6,3.2v12c0,1,0.2,1.6,0.5,1.9
			c0.4,0.3,1.1,0.2,2.1-0.2v2c-0.2,0.1-0.5,0.1-0.9,0.3c-0.4,0.1-0.8,0.2-1.1,0.2c-0.4,0-0.8,0-1.1-0.1c-0.4-0.1-0.8-0.2-1-0.4
			c-0.3-0.2-0.5-0.5-0.6-0.8c-0.2-0.3-0.3-0.6-0.3-1c-0.1-0.4-0.1-0.7-0.1-1.1c-1.1,1.2-2.3,2.1-3.7,2.7c-1.4,0.6-2.9,0.9-4.5,0.9
			c-1,0-1.9-0.1-2.8-0.4c-0.9-0.3-1.7-0.7-2.4-1.2c-0.7-0.5-1.2-1.2-1.6-2c-0.4-0.8-0.6-1.7-0.6-2.8c0-3.7,2.6-5.9,7.7-6.6
			L962.6,245.1z M966.9,246.3c-1.1,0.5-2.2,0.7-3.3,0.9c-1.1,0.1-2.2,0.3-3.3,0.3c-2,0.1-3.5,0.6-4.6,1.3c-1.1,0.7-1.6,1.9-1.6,3.4
			c0,0.7,0.1,1.3,0.4,1.8c0.3,0.5,0.6,0.9,1.1,1.2c0.4,0.3,0.9,0.6,1.5,0.7c0.6,0.2,1.2,0.2,1.8,0.2c1,0,2-0.1,3-0.4
			c1-0.3,1.8-0.6,2.6-1.2c0.7-0.5,1.4-1.2,1.8-2c0.5-0.8,0.7-1.8,0.7-2.9V246.3z"/>
		<path d="M993.1,227.3h2.5v30.5h-2.5V254H993c-0.4,0.7-0.8,1.4-1.4,1.9c-0.6,0.6-1.2,1-1.9,1.4c-0.7,0.4-1.4,0.6-2.1,0.8
			c-0.7,0.2-1.5,0.3-2.2,0.3c-1.8,0-3.3-0.3-4.5-0.9c-1.2-0.6-2.3-1.4-3.1-2.4s-1.4-2.3-1.8-3.7c-0.4-1.4-0.6-2.9-0.6-4.5
			c0-1.5,0.2-3,0.6-4.4c0.4-1.4,1-2.6,1.8-3.7c0.8-1.1,1.8-1.9,3.1-2.5c1.2-0.6,2.7-1,4.3-1c1.6,0,3,0.3,4.5,1s2.6,1.7,3.4,3.1
			V227.3z M993.1,246.8c0-1.2-0.2-2.4-0.5-3.5c-0.3-1.1-0.8-2.1-1.5-2.9c-0.6-0.8-1.4-1.5-2.3-2c-0.9-0.5-2-0.7-3.1-0.7
			c-1.3,0-2.5,0.3-3.4,0.8c-1,0.5-1.8,1.2-2.4,2.1c-0.6,0.9-1.1,2-1.4,3.2c-0.3,1.2-0.4,2.5-0.3,3.9c0,1.4,0.2,2.6,0.6,3.7
			c0.4,1.1,0.9,2,1.6,2.7c0.7,0.7,1.5,1.3,2.4,1.7c0.9,0.4,1.9,0.6,3,0.6c1.2,0,2.2-0.2,3.2-0.7c0.9-0.5,1.7-1.1,2.3-2
			c0.6-0.8,1.1-1.8,1.4-3C992.9,249.4,993.1,248.1,993.1,246.8z"/>
		<path d="M1003.6,247.5c0,1.2,0.2,2.3,0.5,3.4c0.3,1.1,0.8,2,1.4,2.8c0.6,0.8,1.4,1.4,2.3,1.9s2,0.7,3.2,0.7c1.7,0,3.1-0.4,4.3-1.3
			c1.2-0.9,2-2.1,2.4-3.7h2.8c-0.3,1-0.7,2-1.2,2.9c-0.5,0.9-1.1,1.7-1.9,2.3c-0.8,0.7-1.7,1.2-2.7,1.5c-1,0.4-2.3,0.5-3.6,0.5
			c-1.8,0-3.3-0.3-4.5-0.9c-1.3-0.6-2.3-1.4-3.1-2.4s-1.4-2.2-1.8-3.6c-0.4-1.4-0.6-2.9-0.6-4.5c0-1.6,0.2-3.1,0.7-4.5
			c0.5-1.4,1.1-2.7,2-3.7c0.9-1.1,1.9-1.9,3.2-2.5c1.2-0.6,2.7-0.9,4.2-0.9c3,0,5.4,1,7.1,3.1c1.7,2.1,2.6,5.1,2.5,9.1H1003.6z
			 M1018,245.3c0-1.1-0.1-2.1-0.4-3c-0.3-0.9-0.7-1.8-1.3-2.5c-0.6-0.7-1.3-1.2-2.2-1.7c-0.9-0.4-1.9-0.6-3-0.6
			c-1.1,0-2.1,0.2-3,0.6c-0.9,0.4-1.6,1-2.2,1.7c-0.6,0.7-1.1,1.5-1.5,2.5c-0.4,0.9-0.6,1.9-0.7,3H1018z"/>
		<path d="M1028.3,257.9h-2.5v-22h2.5v4.1h0.1c0.7-1.8,1.6-3,2.7-3.7c1.1-0.7,2.6-1,4.4-1v2.8c-1.4,0-2.6,0.2-3.6,0.7
			c-0.9,0.5-1.7,1.1-2.2,2c-0.6,0.8-0.9,1.8-1.1,2.9c-0.2,1.1-0.3,2.3-0.3,3.5V257.9z"/>
	</g>
</g>
</svg>
